<mxfile host="app.diagrams.net" modified="2020-12-11T23:41:27.268Z" agent="5.0 (X11; Linux x86_64) AppleWebKit/537.36 (KHTML, like Gecko) Chrome/87.0.4280.66 Safari/537.36" etag="H9grq2GQrsh8VgNw6lQB" version="14.0.1" type="github">
  <diagram id="S4fYWXtu835OQgn1I5YK" name="Page-1">
    <mxGraphModel dx="1350" dy="806" grid="1" gridSize="10" guides="1" tooltips="1" connect="1" arrows="1" fold="1" page="1" pageScale="1" pageWidth="1169" pageHeight="827" math="0" shadow="0">
      <root>
        <mxCell id="0" />
        <mxCell id="1" parent="0" />
        <mxCell id="EzJb_2AODaSsY35CWrnH-17" style="edgeStyle=orthogonalEdgeStyle;rounded=0;orthogonalLoop=1;jettySize=auto;html=1;entryX=0.175;entryY=0.75;entryDx=0;entryDy=0;entryPerimeter=0;endArrow=none;endFill=0;exitX=1;exitY=0.5;exitDx=0;exitDy=0;" parent="1" source="EzJb_2AODaSsY35CWrnH-1" target="EzJb_2AODaSsY35CWrnH-14" edge="1">
          <mxGeometry relative="1" as="geometry">
            <mxPoint x="660.1700000000001" y="260" as="targetPoint" />
            <Array as="points">
              <mxPoint x="580" y="240" />
              <mxPoint x="660" y="240" />
              <mxPoint x="660" y="250" />
            </Array>
          </mxGeometry>
        </mxCell>
        <mxCell id="EzJb_2AODaSsY35CWrnH-1" value="" style="rounded=0;whiteSpace=wrap;html=1;" parent="1" vertex="1">
          <mxGeometry x="260.17" y="210" width="320" height="40" as="geometry" />
        </mxCell>
        <mxCell id="EzJb_2AODaSsY35CWrnH-2" value="" style="endArrow=none;html=1;" parent="1" edge="1">
          <mxGeometry width="50" height="50" relative="1" as="geometry">
            <mxPoint x="300.17" y="250" as="sourcePoint" />
            <mxPoint x="300.17" y="210" as="targetPoint" />
          </mxGeometry>
        </mxCell>
        <mxCell id="EzJb_2AODaSsY35CWrnH-3" value="" style="endArrow=none;html=1;" parent="1" edge="1">
          <mxGeometry width="50" height="50" relative="1" as="geometry">
            <mxPoint x="340.17" y="250" as="sourcePoint" />
            <mxPoint x="340.17" y="210" as="targetPoint" />
          </mxGeometry>
        </mxCell>
        <mxCell id="EzJb_2AODaSsY35CWrnH-4" value="" style="endArrow=none;html=1;" parent="1" edge="1">
          <mxGeometry width="50" height="50" relative="1" as="geometry">
            <mxPoint x="380.17" y="250" as="sourcePoint" />
            <mxPoint x="380.17" y="210" as="targetPoint" />
          </mxGeometry>
        </mxCell>
        <mxCell id="EzJb_2AODaSsY35CWrnH-5" value="" style="endArrow=none;html=1;" parent="1" edge="1">
          <mxGeometry width="50" height="50" relative="1" as="geometry">
            <mxPoint x="420.17" y="250" as="sourcePoint" />
            <mxPoint x="420.17" y="210" as="targetPoint" />
          </mxGeometry>
        </mxCell>
        <mxCell id="EzJb_2AODaSsY35CWrnH-6" value="" style="endArrow=none;html=1;" parent="1" edge="1">
          <mxGeometry width="50" height="50" relative="1" as="geometry">
            <mxPoint x="459.6" y="250" as="sourcePoint" />
            <mxPoint x="459.6" y="210" as="targetPoint" />
          </mxGeometry>
        </mxCell>
        <mxCell id="EzJb_2AODaSsY35CWrnH-7" value="" style="endArrow=none;html=1;" parent="1" edge="1">
          <mxGeometry width="50" height="50" relative="1" as="geometry">
            <mxPoint x="499.6" y="250" as="sourcePoint" />
            <mxPoint x="499.6" y="210" as="targetPoint" />
          </mxGeometry>
        </mxCell>
        <mxCell id="EzJb_2AODaSsY35CWrnH-8" value="" style="endArrow=none;html=1;" parent="1" edge="1">
          <mxGeometry width="50" height="50" relative="1" as="geometry">
            <mxPoint x="539.6" y="250" as="sourcePoint" />
            <mxPoint x="539.6" y="210" as="targetPoint" />
          </mxGeometry>
        </mxCell>
        <mxCell id="EzJb_2AODaSsY35CWrnH-10" value="" style="triangle;whiteSpace=wrap;html=1;rotation=-90;" parent="1" vertex="1">
          <mxGeometry x="572.6700000000001" y="242.5" width="5" height="10" as="geometry" />
        </mxCell>
        <mxCell id="EzJb_2AODaSsY35CWrnH-12" value="" style="endArrow=classic;html=1;" parent="1" source="DzvZw3ezXd9Cs3Re6mV4-5" edge="1">
          <mxGeometry width="50" height="50" relative="1" as="geometry">
            <mxPoint x="140" y="310" as="sourcePoint" />
            <mxPoint x="420.17" y="250" as="targetPoint" />
            <Array as="points">
              <mxPoint x="420" y="310" />
            </Array>
          </mxGeometry>
        </mxCell>
        <mxCell id="EKCVB3ZQErf0Hd2IsLYp-6" style="edgeStyle=orthogonalEdgeStyle;rounded=0;orthogonalLoop=1;jettySize=auto;html=1;entryX=0;entryY=0.25;entryDx=0;entryDy=0;entryPerimeter=0;endArrow=none;endFill=0;" edge="1" parent="1" source="EzJb_2AODaSsY35CWrnH-14" target="EKCVB3ZQErf0Hd2IsLYp-5">
          <mxGeometry relative="1" as="geometry" />
        </mxCell>
        <mxCell id="EzJb_2AODaSsY35CWrnH-14" value="" style="shape=xor;whiteSpace=wrap;html=1;" parent="1" vertex="1">
          <mxGeometry x="680" y="220" width="30" height="40" as="geometry" />
        </mxCell>
        <mxCell id="EzJb_2AODaSsY35CWrnH-19" value="" style="endArrow=oval;html=1;endFill=1;entryX=0;entryY=0.75;entryDx=0;entryDy=0;entryPerimeter=0;" parent="1" edge="1" target="EKCVB3ZQErf0Hd2IsLYp-5">
          <mxGeometry width="50" height="50" relative="1" as="geometry">
            <mxPoint x="624" y="290" as="sourcePoint" />
            <mxPoint x="760" y="280" as="targetPoint" />
            <Array as="points" />
          </mxGeometry>
        </mxCell>
        <mxCell id="EzJb_2AODaSsY35CWrnH-24" value="force 0" style="edgeLabel;html=1;align=center;verticalAlign=middle;resizable=0;points=[];" parent="EzJb_2AODaSsY35CWrnH-19" vertex="1" connectable="0">
          <mxGeometry x="-0.0244" y="1" relative="1" as="geometry">
            <mxPoint x="-21.63" y="0.94" as="offset" />
          </mxGeometry>
        </mxCell>
        <mxCell id="EzJb_2AODaSsY35CWrnH-20" value="" style="endArrow=none;html=1;entryX=0.175;entryY=0.75;entryDx=0;entryDy=0;entryPerimeter=0;endFill=0;" parent="1" edge="1">
          <mxGeometry width="50" height="50" relative="1" as="geometry">
            <mxPoint x="610" y="229.5" as="sourcePoint" />
            <mxPoint x="685.25" y="229.5" as="targetPoint" />
          </mxGeometry>
        </mxCell>
        <mxCell id="EzJb_2AODaSsY35CWrnH-23" value="force 1" style="edgeLabel;html=1;align=center;verticalAlign=middle;resizable=0;points=[];" parent="EzJb_2AODaSsY35CWrnH-20" vertex="1" connectable="0">
          <mxGeometry x="-0.4465" relative="1" as="geometry">
            <mxPoint x="-15.75" as="offset" />
          </mxGeometry>
        </mxCell>
        <mxCell id="EzJb_2AODaSsY35CWrnH-22" value="" style="endArrow=none;html=1;endFill=0;exitX=1;exitY=0.5;exitDx=0;exitDy=0;exitPerimeter=0;" parent="1" edge="1" source="EKCVB3ZQErf0Hd2IsLYp-5">
          <mxGeometry width="50" height="50" relative="1" as="geometry">
            <mxPoint x="810.17" y="310" as="sourcePoint" />
            <mxPoint x="920" y="280" as="targetPoint" />
          </mxGeometry>
        </mxCell>
        <mxCell id="EzJb_2AODaSsY35CWrnH-27" value="COUNTER_TXEMPTY" style="rounded=0;whiteSpace=wrap;html=1;" parent="1" vertex="1">
          <mxGeometry x="360.17" y="90" width="120" height="40" as="geometry" />
        </mxCell>
        <mxCell id="EzJb_2AODaSsY35CWrnH-32" style="edgeStyle=orthogonalEdgeStyle;rounded=0;orthogonalLoop=1;jettySize=auto;html=1;exitX=1;exitY=0.25;exitDx=0;exitDy=0;endArrow=none;endFill=0;entryX=0;entryY=0.5;entryDx=0;entryDy=0;" parent="1" source="EzJb_2AODaSsY35CWrnH-27" edge="1">
          <mxGeometry relative="1" as="geometry">
            <mxPoint x="630" y="110" as="targetPoint" />
            <mxPoint x="447.6700000000001" y="90" as="sourcePoint" />
            <Array as="points">
              <mxPoint x="480" y="110" />
            </Array>
          </mxGeometry>
        </mxCell>
        <mxCell id="EzJb_2AODaSsY35CWrnH-33" value="count_en" style="edgeLabel;html=1;align=center;verticalAlign=middle;resizable=0;points=[];" parent="EzJb_2AODaSsY35CWrnH-32" vertex="1" connectable="0">
          <mxGeometry x="-0.2957" y="-1" relative="1" as="geometry">
            <mxPoint x="38.57" y="9" as="offset" />
          </mxGeometry>
        </mxCell>
        <mxCell id="EzJb_2AODaSsY35CWrnH-40" value="" style="endArrow=none;html=1;entryX=0;entryY=0.25;entryDx=0;entryDy=0;" parent="1" target="EzJb_2AODaSsY35CWrnH-1" edge="1">
          <mxGeometry width="50" height="50" relative="1" as="geometry">
            <mxPoint x="210.17000000000002" y="220" as="sourcePoint" />
            <mxPoint x="320.17" y="280" as="targetPoint" />
          </mxGeometry>
        </mxCell>
        <mxCell id="EzJb_2AODaSsY35CWrnH-41" value="sh_en" style="edgeLabel;html=1;align=center;verticalAlign=middle;resizable=0;points=[];" parent="EzJb_2AODaSsY35CWrnH-40" vertex="1" connectable="0">
          <mxGeometry x="0.1629" y="3" relative="1" as="geometry">
            <mxPoint x="-39.14" as="offset" />
          </mxGeometry>
        </mxCell>
        <mxCell id="EzJb_2AODaSsY35CWrnH-42" value="" style="endArrow=none;html=1;" parent="1" edge="1">
          <mxGeometry width="50" height="50" relative="1" as="geometry">
            <mxPoint x="200.17000000000002" y="238" as="sourcePoint" />
            <mxPoint x="260.17" y="238" as="targetPoint" />
            <Array as="points" />
          </mxGeometry>
        </mxCell>
        <mxCell id="EzJb_2AODaSsY35CWrnH-45" value="ld_en" style="edgeLabel;html=1;align=center;verticalAlign=middle;resizable=0;points=[];" parent="EzJb_2AODaSsY35CWrnH-42" vertex="1" connectable="0">
          <mxGeometry x="-0.4619" y="-2" relative="1" as="geometry">
            <mxPoint x="-16.17" as="offset" />
          </mxGeometry>
        </mxCell>
        <mxCell id="EzJb_2AODaSsY35CWrnH-46" value="" style="endArrow=none;html=1;" parent="1" edge="1">
          <mxGeometry width="50" height="50" relative="1" as="geometry">
            <mxPoint x="240" y="108" as="sourcePoint" />
            <mxPoint x="358.17" y="108" as="targetPoint" />
            <Array as="points" />
          </mxGeometry>
        </mxCell>
        <mxCell id="EzJb_2AODaSsY35CWrnH-47" value="TC" style="edgeLabel;html=1;align=center;verticalAlign=middle;resizable=0;points=[];" parent="EzJb_2AODaSsY35CWrnH-46" vertex="1" connectable="0">
          <mxGeometry x="0.2531" y="2" relative="1" as="geometry">
            <mxPoint x="-12.28" y="2.18" as="offset" />
          </mxGeometry>
        </mxCell>
        <mxCell id="uUyU5nX94pncd0CpgL3v-12" style="edgeStyle=none;rounded=0;orthogonalLoop=1;jettySize=auto;html=1;" parent="1" edge="1">
          <mxGeometry relative="1" as="geometry">
            <mxPoint x="220" y="108.13" as="targetPoint" />
            <mxPoint x="250.17000000000007" y="108.13" as="sourcePoint" />
          </mxGeometry>
        </mxCell>
        <mxCell id="EzJb_2AODaSsY35CWrnH-54" value="" style="triangle;whiteSpace=wrap;html=1;rotation=-90;" parent="1" vertex="1">
          <mxGeometry x="468.29999999999995" y="118.13" width="8.75" height="15" as="geometry" />
        </mxCell>
        <mxCell id="DzvZw3ezXd9Cs3Re6mV4-3" value="Sout" style="text;html=1;align=center;verticalAlign=middle;resizable=0;points=[];autosize=1;" parent="1" vertex="1">
          <mxGeometry x="920" y="270" width="40" height="20" as="geometry" />
        </mxCell>
        <mxCell id="DzvZw3ezXd9Cs3Re6mV4-5" value="Pin" style="text;html=1;align=center;verticalAlign=middle;resizable=0;points=[];autosize=1;" parent="1" vertex="1">
          <mxGeometry x="120" y="300" width="30" height="20" as="geometry" />
        </mxCell>
        <mxCell id="uUyU5nX94pncd0CpgL3v-1" value="COUNTER" style="rounded=0;whiteSpace=wrap;html=1;" parent="1" vertex="1">
          <mxGeometry x="740" y="90" width="120" height="40" as="geometry" />
        </mxCell>
        <mxCell id="uUyU5nX94pncd0CpgL3v-2" style="edgeStyle=orthogonalEdgeStyle;rounded=0;orthogonalLoop=1;jettySize=auto;html=1;exitX=1;exitY=0.25;exitDx=0;exitDy=0;endArrow=none;endFill=0;" parent="1" source="uUyU5nX94pncd0CpgL3v-1" edge="1">
          <mxGeometry relative="1" as="geometry">
            <mxPoint x="918" y="100" as="targetPoint" />
            <mxPoint x="827.5" y="90" as="sourcePoint" />
            <Array as="points">
              <mxPoint x="917.5" y="100" />
            </Array>
          </mxGeometry>
        </mxCell>
        <mxCell id="uUyU5nX94pncd0CpgL3v-3" value="count_en =1" style="edgeLabel;html=1;align=center;verticalAlign=middle;resizable=0;points=[];" parent="uUyU5nX94pncd0CpgL3v-2" vertex="1" connectable="0">
          <mxGeometry x="-0.2957" y="-1" relative="1" as="geometry">
            <mxPoint x="49" y="-2.87" as="offset" />
          </mxGeometry>
        </mxCell>
        <mxCell id="uUyU5nX94pncd0CpgL3v-4" value="" style="endArrow=none;html=1;exitX=1;exitY=0.5;exitDx=0;exitDy=0;entryX=0;entryY=0.5;entryDx=0;entryDy=0;" parent="1" target="uUyU5nX94pncd0CpgL3v-1" edge="1">
          <mxGeometry width="50" height="50" relative="1" as="geometry">
            <mxPoint x="670" y="110" as="sourcePoint" />
            <mxPoint x="738" y="108" as="targetPoint" />
            <Array as="points" />
          </mxGeometry>
        </mxCell>
        <mxCell id="uUyU5nX94pncd0CpgL3v-5" value="TC_flag" style="edgeLabel;html=1;align=center;verticalAlign=middle;resizable=0;points=[];" parent="uUyU5nX94pncd0CpgL3v-4" vertex="1" connectable="0">
          <mxGeometry x="0.2531" y="2" relative="1" as="geometry">
            <mxPoint x="-3.889999999999999" y="2" as="offset" />
          </mxGeometry>
        </mxCell>
        <mxCell id="uUyU5nX94pncd0CpgL3v-7" value="" style="triangle;whiteSpace=wrap;html=1;rotation=-90;" parent="1" vertex="1">
          <mxGeometry x="848.13" y="118.13" width="8.75" height="15" as="geometry" />
        </mxCell>
        <mxCell id="uUyU5nX94pncd0CpgL3v-9" value="" style="endArrow=classic;html=1;" parent="1" edge="1">
          <mxGeometry width="50" height="50" relative="1" as="geometry">
            <mxPoint x="600" y="110" as="sourcePoint" />
            <mxPoint x="600" y="80" as="targetPoint" />
          </mxGeometry>
        </mxCell>
        <mxCell id="uUyU5nX94pncd0CpgL3v-10" value="term_count" style="text;html=1;align=center;verticalAlign=middle;resizable=0;points=[];autosize=1;" parent="1" vertex="1">
          <mxGeometry x="562.6700000000001" y="60" width="80" height="20" as="geometry" />
        </mxCell>
        <mxCell id="uUyU5nX94pncd0CpgL3v-13" value="TX_EMPY" style="text;html=1;align=center;verticalAlign=middle;resizable=0;points=[];autosize=1;" parent="1" vertex="1">
          <mxGeometry x="150" y="98.13" width="70" height="20" as="geometry" />
        </mxCell>
        <mxCell id="EKCVB3ZQErf0Hd2IsLYp-2" value="TC" style="edgeStyle=orthogonalEdgeStyle;rounded=0;orthogonalLoop=1;jettySize=auto;html=1;entryX=0.574;entryY=1;entryDx=0;entryDy=0;entryPerimeter=0;endArrow=none;endFill=0;" edge="1" parent="1" source="EKCVB3ZQErf0Hd2IsLYp-1" target="EzJb_2AODaSsY35CWrnH-27">
          <mxGeometry relative="1" as="geometry" />
        </mxCell>
        <mxCell id="EKCVB3ZQErf0Hd2IsLYp-1" value="7" style="text;html=1;align=center;verticalAlign=middle;resizable=0;points=[];autosize=1;" vertex="1" parent="1">
          <mxGeometry x="420" y="160" width="20" height="20" as="geometry" />
        </mxCell>
        <mxCell id="EKCVB3ZQErf0Hd2IsLYp-4" value="TC" style="edgeStyle=orthogonalEdgeStyle;rounded=0;orthogonalLoop=1;jettySize=auto;html=1;endArrow=none;endFill=0;" edge="1" parent="1" source="EKCVB3ZQErf0Hd2IsLYp-3" target="uUyU5nX94pncd0CpgL3v-1">
          <mxGeometry relative="1" as="geometry" />
        </mxCell>
        <mxCell id="EKCVB3ZQErf0Hd2IsLYp-3" value="139" style="text;html=1;align=center;verticalAlign=middle;resizable=0;points=[];autosize=1;" vertex="1" parent="1">
          <mxGeometry x="780" y="170" width="40" height="20" as="geometry" />
        </mxCell>
        <mxCell id="EKCVB3ZQErf0Hd2IsLYp-5" value="" style="shape=or;whiteSpace=wrap;html=1;" vertex="1" parent="1">
          <mxGeometry x="760" y="260" width="30" height="40" as="geometry" />
        </mxCell>
      </root>
    </mxGraphModel>
  </diagram>
</mxfile>
